<?xml version="1.0" standalone="no"?>
<!DOCTYPE svg PUBLIC "-//W3C//DTD SVG 20010904//EN"
 "http://www.w3.org/TR/2001/REC-SVG-20010904/DTD/svg10.dtd">
<svg version="1.0" xmlns="http://www.w3.org/2000/svg"
 width="512.000000pt" height="512.000000pt" viewBox="0 0 512.000000 512.000000"
 preserveAspectRatio="xMidYMid meet">

<g transform="translate(0.000000,512.000000) scale(0.100000,-0.100000)"
fill="#000000" stroke="none">
<path d="M1064 3350 c-64 -13 -164 -57 -211 -94 -126 -98 -185 -245 -184 -455
2 -313 113 -514 317 -576 203 -62 477 -25 602 80 l31 26 43 -33 c74 -56 125
-71 236 -66 116 5 186 32 248 97 l40 41 35 -36 c18 -20 61 -50 94 -67 59 -31
63 -32 195 -32 130 0 137 1 188 29 29 16 72 51 97 77 l44 47 29 -37 c17 -22
61 -54 104 -76 69 -37 78 -39 184 -43 86 -3 123 -1 160 12 62 21 136 75 173
126 l29 41 16 -53 c21 -75 67 -117 134 -125 63 -7 103 8 141 53 l27 34 55 -30
c86 -46 169 -64 269 -56 140 11 214 60 208 140 -2 33 -9 43 -35 59 -29 17 -39
17 -105 6 -52 -8 -83 -8 -108 -1 l-35 10 45 1 c84 2 179 29 227 63 62 44 86
92 86 173 -1 91 -36 161 -112 221 -113 89 -254 99 -422 30 -13 -6 -17 9 -27
97 -23 211 -74 287 -192 287 -126 0 -187 -117 -191 -367 -1 -51 -4 -93 -6 -93
-3 0 -23 16 -46 35 -57 49 -133 75 -217 75 -38 0 -81 -5 -96 -10 -15 -6 -28
-9 -30 -7 -2 2 5 39 16 83 26 103 26 179 0 221 -52 87 -186 85 -258 -3 -36
-44 -86 -166 -96 -234 -4 -25 -9 -57 -12 -71 l-5 -26 -57 23 c-63 26 -166 32
-221 13 -18 -6 -34 -10 -35 -8 -2 2 5 36 15 74 10 39 19 102 19 142 0 62 -3
75 -25 101 -34 40 -75 55 -136 50 -63 -6 -95 -29 -136 -98 -39 -64 -58 -115
-73 -192 -11 -54 -13 -58 -40 -58 -16 0 -42 -11 -59 -25 -45 -39 -55 -81 -47
-214 7 -124 -2 -174 -34 -191 -30 -16 -66 -11 -86 11 -17 19 -19 38 -19 179 0
145 -2 161 -21 187 -26 35 -60 53 -101 53 -31 0 -33 2 -33 38 0 163 -128 300
-318 341 -60 12 -216 13 -278 1z m177 -387 c30 -18 44 -47 37 -79 -9 -48 -124
-82 -172 -51 -46 30 -41 112 7 135 34 16 96 14 128 -5z m2907 -245 c18 -18 14
-46 -7 -58 -38 -20 -111 -6 -111 22 0 6 7 20 17 30 19 21 82 25 101 6z m-1587
-61 c66 -50 35 -151 -47 -151 -71 0 -104 85 -54 139 26 27 73 33 101 12z m676
-9 c45 -50 36 -107 -20 -134 -30 -14 -38 -15 -63 -3 -35 17 -58 61 -50 95 16
62 92 86 133 42z m-1947 -93 c24 -22 26 -58 5 -79 -38 -37 -148 -44 -175 -11
-29 35 -4 98 44 109 40 8 107 -2 126 -19z"/>
<path d="M1624 2186 c-69 -17 -147 -75 -173 -129 -25 -52 -26 -97 -5 -161 19
-56 63 -89 163 -123 36 -12 67 -27 69 -32 5 -16 -21 -13 -68 5 -80 32 -150 -5
-150 -80 0 -33 6 -48 28 -68 73 -68 238 -84 348 -34 32 15 62 32 67 39 6 9 10
8 14 -2 24 -60 100 -79 149 -38 24 21 28 33 34 108 9 99 16 119 41 119 26 0
36 -25 42 -112 6 -89 16 -111 56 -128 38 -16 78 -3 105 34 18 24 21 42 21 139
0 98 -3 118 -24 160 -35 72 -86 102 -173 102 l-68 0 0 51 c0 100 -22 147 -75
160 -46 11 -76 -2 -108 -49 -12 -18 -14 -18 -37 1 -52 40 -173 58 -256 38z
m264 -296 c3 -43 -2 -47 -31 -26 -10 8 -47 22 -83 32 -38 10 -64 22 -64 30 0
11 19 13 88 9 l87 -4 3 -41z m27 11 c3 -5 2 -12 -3 -15 -5 -3 -9 1 -9 9 0 17
3 19 12 6z"/>
<path d="M2868 1971 l-33 -29 -3 -115 c-5 -142 10 -220 48 -259 70 -70 150
-10 150 111 0 83 34 127 91 119 21 -3 25 -10 30 -55 9 -74 45 -131 103 -168
45 -27 57 -30 137 -30 100 0 141 20 147 70 5 41 -10 49 -95 48 l-78 -1 58 9
c32 4 74 16 93 25 111 53 93 208 -30 269 -66 33 -134 33 -203 1 l-52 -25 -27
21 c-35 28 -117 35 -165 15 -32 -13 -37 -13 -58 4 -34 28 -75 24 -113 -10z
m547 -156 c0 -15 -8 -21 -29 -23 -34 -4 -49 8 -40 32 10 26 69 18 69 -9z"/>
<path d="M2474 1979 c-65 -19 -107 -84 -88 -138 13 -37 51 -47 117 -31 34 8
66 10 83 4 24 -6 17 -9 -43 -14 -110 -9 -163 -54 -163 -137 0 -29 8 -43 40
-74 46 -44 86 -54 168 -45 70 9 87 9 134 0 31 -5 41 -2 62 20 29 28 33 62 12
91 -10 14 -11 26 -5 43 23 59 0 173 -44 221 -38 41 -115 71 -182 70 -33 0 -74
-5 -91 -10z m121 -309 c0 -18 -33 -26 -47 -12 -6 6 -7 15 -3 22 10 16 50 8 50
-10z"/>
</g>
</svg>
